# xmcd CD database file
#
# Track frame offsets:
#	150
#	56254
#	122623
#	168654
#
# Disc length: 3140 seconds
#
# Revision: 0
# Processed by: cddbd v1.5.2PL0 Copyright (c) Steve Scherf et al.
# Submitted via: CDex 1.51
#
DISCID=2c0c4204
DTITLE=The Uncommon Orchestra - A Bigger Show Set 1
DYEAR=2015
DGENRE=Jazz
TTITLE0=Gizzards All Gory
TTITLE1=Juxtapositions
TTITLE2=Freedom's Crown
TTITLE3=	 - Scattered and Cold
EXTD=YEAR: 2015
EXTT0=
EXTT1=
EXTT2=
EXTT3=
PLAYORDER=
